<mxfile host="app.diagrams.net" modified="2022-07-08T06:43:07.242Z" agent="5.0 (Windows NT 10.0; Win64; x64) AppleWebKit/537.36 (KHTML, like Gecko) Chrome/101.0.0.0 Safari/537.36" etag="sKR3JcSK3OQ1WvGqgRRD" version="20.0.4" type="github">
  <diagram id="3xIqXDS8YJOuZb-GxYhj" name="第 1 页">
    <mxGraphModel dx="1422" dy="762" grid="1" gridSize="10" guides="1" tooltips="1" connect="1" arrows="1" fold="1" page="1" pageScale="1" pageWidth="827" pageHeight="1169" math="0" shadow="0">
      <root>
        <mxCell id="0" />
        <mxCell id="1" parent="0" />
        <mxCell id="NqustpCBwUxMm1tvmL7c-3" style="edgeStyle=orthogonalEdgeStyle;curved=1;rounded=0;orthogonalLoop=1;jettySize=auto;html=1;exitX=0.5;exitY=0;exitDx=0;exitDy=0;entryX=0;entryY=0.5;entryDx=0;entryDy=0;strokeColor=#788AA3;fontColor=#46495D;" edge="1" parent="1" source="NqustpCBwUxMm1tvmL7c-1" target="NqustpCBwUxMm1tvmL7c-2">
          <mxGeometry relative="1" as="geometry" />
        </mxCell>
        <mxCell id="NqustpCBwUxMm1tvmL7c-1" value="" style="ellipse;whiteSpace=wrap;html=1;aspect=fixed;fillColor=#B2C9AB;strokeColor=#788AA3;fontColor=#46495D;" vertex="1" parent="1">
          <mxGeometry x="180" y="240" width="80" height="80" as="geometry" />
        </mxCell>
        <mxCell id="NqustpCBwUxMm1tvmL7c-8" style="edgeStyle=orthogonalEdgeStyle;curved=1;rounded=0;orthogonalLoop=1;jettySize=auto;html=1;exitX=1;exitY=0.5;exitDx=0;exitDy=0;strokeColor=#788AA3;fontColor=#46495D;" edge="1" parent="1" source="NqustpCBwUxMm1tvmL7c-2" target="NqustpCBwUxMm1tvmL7c-5">
          <mxGeometry relative="1" as="geometry" />
        </mxCell>
        <mxCell id="NqustpCBwUxMm1tvmL7c-2" value="" style="ellipse;whiteSpace=wrap;html=1;aspect=fixed;fillColor=#B2C9AB;strokeColor=#788AA3;fontColor=#46495D;" vertex="1" parent="1">
          <mxGeometry x="320" y="120" width="80" height="80" as="geometry" />
        </mxCell>
        <mxCell id="NqustpCBwUxMm1tvmL7c-6" style="edgeStyle=orthogonalEdgeStyle;curved=1;rounded=0;orthogonalLoop=1;jettySize=auto;html=1;exitX=0;exitY=0.5;exitDx=0;exitDy=0;entryX=0.588;entryY=1;entryDx=0;entryDy=0;strokeColor=#788AA3;fontColor=#46495D;entryPerimeter=0;" edge="1" parent="1" source="NqustpCBwUxMm1tvmL7c-4" target="NqustpCBwUxMm1tvmL7c-1">
          <mxGeometry relative="1" as="geometry" />
        </mxCell>
        <mxCell id="NqustpCBwUxMm1tvmL7c-4" value="" style="ellipse;whiteSpace=wrap;html=1;aspect=fixed;fillColor=#B2C9AB;strokeColor=#788AA3;fontColor=#46495D;" vertex="1" parent="1">
          <mxGeometry x="320" y="350" width="80" height="80" as="geometry" />
        </mxCell>
        <mxCell id="NqustpCBwUxMm1tvmL7c-7" style="edgeStyle=orthogonalEdgeStyle;curved=1;rounded=0;orthogonalLoop=1;jettySize=auto;html=1;exitX=0.5;exitY=1;exitDx=0;exitDy=0;entryX=1;entryY=0.5;entryDx=0;entryDy=0;strokeColor=#788AA3;fontColor=#46495D;" edge="1" parent="1" source="NqustpCBwUxMm1tvmL7c-5" target="NqustpCBwUxMm1tvmL7c-4">
          <mxGeometry relative="1" as="geometry" />
        </mxCell>
        <mxCell id="NqustpCBwUxMm1tvmL7c-5" value="" style="ellipse;whiteSpace=wrap;html=1;aspect=fixed;fillColor=#B2C9AB;strokeColor=#788AA3;fontColor=#46495D;" vertex="1" parent="1">
          <mxGeometry x="460" y="240" width="80" height="80" as="geometry" />
        </mxCell>
        <mxCell id="NqustpCBwUxMm1tvmL7c-10" value="" style="whiteSpace=wrap;html=1;aspect=fixed;rounded=0;sketch=0;fontColor=#46495D;strokeColor=#788AA3;fillColor=#B2C9AB;" vertex="1" parent="1">
          <mxGeometry x="320" y="240" width="80" height="80" as="geometry" />
        </mxCell>
        <mxCell id="NqustpCBwUxMm1tvmL7c-11" value="Text" style="text;html=1;align=center;verticalAlign=middle;resizable=0;points=[];autosize=1;strokeColor=none;fillColor=none;fontColor=#46495D;" vertex="1" parent="1">
          <mxGeometry x="480" y="440" width="40" height="20" as="geometry" />
        </mxCell>
      </root>
    </mxGraphModel>
  </diagram>
</mxfile>
